<svg xmlns="http://www.w3.org/2000/svg" width="183.32" height="33.71" viewBox="0 0 183.32 33.71"><defs><style>.a{fill:#14294a;fill-rule:evenodd;}</style></defs><path class="a" d="M73.245,31.093c.17-.347.429-.853,1-.516.768.427.339,1.2.259,1.8a8.223,8.223,0,0,1-.4,1.4,2.963,2.963,0,0,0-.17.933c0,.258.259.695.6.695s.688-.347,1-.258-.08.685-.259.853a1,1,0,0,1-.688.258c-1.287.079-1.636-.943-2.065-1.886a12.409,12.409,0,0,1-1.117.774,2.324,2.324,0,0,1-1.806.337,1.807,1.807,0,0,1-1.437-2.134,1.711,1.711,0,0,1,.14-.437,3.267,3.267,0,0,1,4.15-1.985,2.263,2.263,0,0,1,.329.129A.832.832,0,0,0,73.245,31.093Zm-3.881,3.344a3.74,3.74,0,0,0,3.362-2.4,1.6,1.6,0,0,0-2.155,0,2.279,2.279,0,0,0-1.207,2.392Zm10.974-4.119a6.287,6.287,0,0,1,1.726.089c-.269.685-.609,1.628-.868,2.144a7.539,7.539,0,0,0-.858,4.109v.427c0,.337.17.427.429.516h.07a.38.38,0,0,0,.509-.149.366.366,0,0,0-.15-.5c-.17-.179,0-.516,0-.685a12.264,12.264,0,0,1,.6-2.4c.259-.863,1-1.985,1.3-2.828s.339-.853,1.287-.774c.439,0,.778.089,1.207.089.269,0,.688.258.868.169.429-.079.249-.992-.09-.992a2.3,2.3,0,0,0-.778-.089A2.455,2.455,0,0,1,83.78,29.1l.519-.992c.08-.258.17-.427.259-.685a.923.923,0,0,0-.6-.943c-.429-.079-.519.258-.6.516-.439,1.112-.439.992-1,2.223H80.817c-.6,0-1.117.089-1.636.089.18.933.259,1.012,1.117,1.012Zm17.438,6.768c-.17-.169-.349-.337-.259-.6a7.608,7.608,0,0,1,.429-1.886c.948-2.4,1-2.491,2-4.883.259-.774.6-.992.858-1.806.17-.506,0-.992-.429-.992-.609-.089-.609.337-.778.685-.948,2.312-1.287,2.739-2.155,5.051-.339,1.2-.519,1.548-.768,2.66a3.456,3.456,0,0,0,0,1.628h0a.749.749,0,0,0,.938.476C97.866,37.345,97.776,37.256,97.776,37.087Zm11.792-3.166c.259.992.439,1.191,1.207,1.28a12.354,12.354,0,0,0,1.816-.169c.17,0,.339-.089.509-.089a2,2,0,0,0,.349-.079c.259,0,.259.337.08.427s-.509.258-.688.337a3.475,3.475,0,0,1-1.636.437,2.507,2.507,0,0,1-2.412-1.264,2.48,2.48,0,0,1,.177-2.706,5.044,5.044,0,0,1,2-1.538,1.692,1.692,0,0,1,1.885.347,1.484,1.484,0,0,1,.259,2.1,1.386,1.386,0,0,1-.6.466,3.708,3.708,0,0,1-2.933.447Zm.349-.863a2.583,2.583,0,0,0,2.494-.685c.259-.258.429-.6.17-.853a.775.775,0,0,0-.778-.258A3.255,3.255,0,0,0,109.917,33.058Zm-20.67.258a1.879,1.879,0,0,0-.449,2.144c.429.685,1.3.6,2,.516s1.546-.516,1.716-.258a1.352,1.352,0,0,1-.858.992,3.487,3.487,0,0,1-3.192-.179,2.268,2.268,0,0,1-1-2.312,4.713,4.713,0,0,1,2.155-3.166,1.512,1.512,0,0,1,2.125.208,1.26,1.26,0,0,1,.2.308,1.877,1.877,0,0,1,0,1.886,1.432,1.432,0,0,1-1.636.337,5.533,5.533,0,0,1-1.047-.476Zm2.065-1.449c-.688-.437-1.377.248-1.546.764,1.028.347,2.424.605,1.556-.764Zm29.03-.943c.09-.258.259-.516.18-.685a1.192,1.192,0,0,0-.778-.179c-.349.089-.349.516-.429.774a8.388,8.388,0,0,1-.519,1.28c-.349.863-1,2.233-1.377,3.086-.259.605.08.992.6.992a21.59,21.59,0,0,1,1.546-2.223,1.918,1.918,0,0,1,1.467-.774,1.392,1.392,0,0,1,.858.258c.17.169.429.427.6.169.349-.427-.858-1.2-1.207-1.28a1.413,1.413,0,0,0-.858-.089c-.259,0-.948.169-1,.347a8.027,8.027,0,0,1,.928-1.677Zm-16.79.933c-.18.437-.259.774-.439,1.121-.249.764-.509,1.449-.768,2.134a3.179,3.179,0,0,0-.09.863c.09.169.259.516.349.516.249-.089.509-.179.6-.347a27.9,27.9,0,0,0,1.377-3.424c.08-.347.17-.605-.18-.863-.08-.079-.339-.337-.509-.337h-.13c-.12,0-.12.169-.2.337Zm1.626-1.707c.17,0,.519-.516.519-.685a.658.658,0,0,0-.688-.516.37.37,0,0,0-.429.089c-.339.258.01.943.609,1.112Zm5.1-17.417a8.769,8.769,0,0,0-.09,1.449,14.813,14.813,0,0,0,.09,1.886c.08,1.37.259,3.255.259,4.456v.2a.7.7,0,0,1-.778.576,2.006,2.006,0,0,0-.688,0c-.18.079-.18.427-.18.6s-.08.258.09.337a2,2,0,0,0,.688,0h1.806c1,0,1.636-.079,2.594-.079h.589c.18-.089.439-.169.439-.347a.988.988,0,0,0,.08-.506c0-.258-.6-.258-.858-.258h-.6c-.17,0-.778.079-.778-.179s.09-.6.09-.943c0-.764.259-2.054.259-2.908,0-.605.08-2.054.08-2.66s.09-.6.09-1.2.09-1.29.09-1.886v-.992a10.863,10.863,0,0,1,.08-1.707,3.072,3.072,0,0,1,.09-.853,4.68,4.68,0,0,1,.08-1.121c.09-.169.1-.337.18-.427s.419-.079.6-.079.509-.089.768-.089.439,0,.439-.169a2.962,2.962,0,0,0,.08-.774c0-.169-.429-.169-.688-.169-.688.079-2,.079-2.843.079a2.607,2.607,0,0,0-.778.089c-.17.089-.249.089-.429.169a6.466,6.466,0,0,0-1.117,1.8,18.557,18.557,0,0,1-.688,2.064,22.512,22.512,0,0,1-1,2.392c-.17.347-.688,1.806-.858,2.144-.609,1.37-1,2.491-1.556,3.97l-.15.308-.349-.6c-.349-.764-.6-.943-1-1.707a9.556,9.556,0,0,1-.519-1.379l-.429-1.28c-.08-.169-.17-.427-.259-.6-.17-.516-.419-.943-.6-1.459-.08-.258-.17-.427-.259-.685s-.429-1.112-.509-1.37c-.17-.516-.429-.992-.6-1.538a8.578,8.578,0,0,1-.469-1.657l-.18-.258c-.249-.258-.768-.089-1.117-.089H95.98c-.17,0-.259.089-.429.089h-.09V5.9c.09.169.259.169.429.169a4.533,4.533,0,0,1,1,0c.259.079.09.337.09.6v.6c0,.685.17,1.379.17,1.985.17,1.707.259,3.335.339,5.141s-.339,3.255-.259,4.962c.09,1.2.259,1.29-.948,1.548a.711.711,0,0,1-.429.079c-.858.089-.858,0-.768.774v.119c0,.337.17.169.509.169h3.272c.18,0,.519-.089.688-.089h.519a.449.449,0,0,0,.429-.258.514.514,0,0,0,.09-.337c0-.169,0-.347-.17-.347a.35.35,0,0,0-.259-.079,1.513,1.513,0,0,1-.6-.089c-.259-.089-.519-.258-.519-.427a20.88,20.88,0,0,1-.17-3.255c0-2.054.08-4.109.08-6.173.09-.337,0-1.538.09-1.628a13.446,13.446,0,0,1,.858,1.886c.259.516.429,1.121.688,1.628a20.517,20.517,0,0,1,1,2.481,20.864,20.864,0,0,0,1.117,1.886c.349.774.17.774.519,1.459a10.984,10.984,0,0,1,1.287,2.183c.08.248.08.506.339.6a.671.671,0,0,0,.868-.089c.08-.169.08-.427.17-.685a25.834,25.834,0,0,1,1.377-4.2c.339-.853.688-1.886,1-2.66a25.736,25.736,0,0,1,1.117-2.392,2.323,2.323,0,0,1,.17-.437c.259-.685.519-1.28.778-1.985h.17a31.357,31.357,0,0,1-.209,3.712ZM170.6,21.724h0c0-.248-.08-.427,0-.6s.259-.169.429-.248c.439-.089,1.127,0,1.556-.089.259-.089.429-.169.429-.516.09-1.886-.349-3.771-.259-5.657a3.735,3.735,0,0,0,0-.943c0-.258-.09-.427-.09-.685,0-.427.09-.853.09-1.28V10.073a20.013,20.013,0,0,0-.09-2.312,2.727,2.727,0,0,0-.08-.853c0-.258,0-.685-.17-.853a1.682,1.682,0,0,0-.688-.258,4.329,4.329,0,0,1-1.127-.258l-.17-.258c0-.337-.09-.6.09-.685.509-.347,1.806,0,2.4,0h1.207c.519,0,1-.089,1.636-.089a17.969,17.969,0,0,1,2.065.089,6.288,6.288,0,0,1,1.3.089,9.218,9.218,0,0,1,3.7.853,10.229,10.229,0,0,1,1.9,1.28,5.872,5.872,0,0,1,1.3,1.548,6.649,6.649,0,0,1,.509.853c.09.258.18.685.259.992s.349.516.349.853a9.536,9.536,0,0,0,.259.943,4.574,4.574,0,0,1,.249,1.459,3.949,3.949,0,0,1,0,1.459c-.08.258-.17.943-.249,1.2a13.66,13.66,0,0,1-1.816,3.077,6.419,6.419,0,0,1-2.065,1.985c-1,.685-1.9.427-2.843.774-.339.079-.778,0-1.117.079a12.5,12.5,0,0,1-1.726.089,13.668,13.668,0,0,0-1.806-.089c-.948,0-1.9-.079-2.923-.079C173.185,21.863,170.861,21.863,170.6,21.724Zm5.427-6.679a2.53,2.53,0,0,1-.09.774,12.943,12.943,0,0,0-.08,3.166c.08.516-.429,1.459.339,1.717a3.369,3.369,0,0,0,.948.079h1.636a8.92,8.92,0,0,0,3.1-.506c.259-.089.519-.089.688-.347a5.338,5.338,0,0,1,.688-.774,4.519,4.519,0,0,0,.868-1.538c.08-.337.08-.853.17-1.2a8.66,8.66,0,0,0,.17-2.977,1.768,1.768,0,0,0-.08-.685v-.337a5.051,5.051,0,0,0-.259-.992,5.172,5.172,0,0,0-.09-1.112,5.937,5.937,0,0,0-.858-2.144,2.512,2.512,0,0,1-.429-.6c-.18-.258-.439-.347-.6-.516a2.233,2.233,0,0,0-.7-.516,3,3,0,0,0-1.716-.556,11.11,11.11,0,0,0-1.726-.089h-1c-.18,0-.688-.089-.868.169-.08.089,0,.427,0,.6V9.637a5.373,5.373,0,0,1-.08,1.2v4.2ZM21.609,20.1l-.09.179a2.419,2.419,0,0,1-.6.992,1.247,1.247,0,0,1-.778.516,2.937,2.937,0,0,1-2.664-.089,7.194,7.194,0,0,1-1-.685c-.259-.258-.688-.427-.858-.685l-.18-.258-.339-.506c-.17-.258-.259-.516-.429-.774a22.988,22.988,0,0,1-1.3-2.57,3.512,3.512,0,0,0-1-1.459c-.439-.258-.948-.079-1.377-.079s-1-.179-.948.337V18.7a6.271,6.271,0,0,0,.17,1.29c0,.169-.09.6.08.685a2.286,2.286,0,0,0,.778.079,2,2,0,0,1,.688,0,.366.366,0,0,1,.259.347v.169l-.08.169h-.1l-.339.089H9.807c-.6,0-1.207-.089-1.9-.089H5.5l-.08-.079h0V21.1l.17-.228a.531.531,0,0,1,.349-.089c.17,0,.249-.079.429-.079a1.854,1.854,0,0,0,1-.169c.08-.089.08-.179.17-.347v-.427c0-.258.09-.516.09-.774v-.853c0-1.2-.259-2.57-.349-3.771v-4.2c0-.992-.17-.992-.17-2.054a.791.791,0,0,0-.11-.427c-.08-.258,0-1.459-.08-1.459s-.12-.169-.289-.238L6.365,5.9h-1A.461.461,0,0,1,5,5.8V5.617c0-.169-.09-.337.08-.427a2.075,2.075,0,0,1,.7-.089,11.161,11.161,0,0,1,1.616-.109c.868,0,2.065.089,2.843.089,1.3,0,2,.079,2.584.079a4.858,4.858,0,0,1,1.9.516c.6.347,1.556.685,1.9,1.2.259.337.17.258.429.6a6.061,6.061,0,0,1,.928,3.116,6.008,6.008,0,0,1-.339,1.449.911.911,0,0,1-.259.516c-.09.179-.17.258-.259.427-.17.347-.858.695-1.117.863a4.315,4.315,0,0,1-.858.427.391.391,0,0,0-.439,0c-.17.089,0,.169.09.258l.17.258c.18.258.519.427.6.685s.349.337.519.516a8.377,8.377,0,0,1,.6.992c.17.337.349.6.519.943a7.685,7.685,0,0,0,1.287,1.707c.18.179.349.258.519.427a1.1,1.1,0,0,0,.429.258c.349.258.948.347,1.127-.079a1.353,1.353,0,0,0,.08-.6.227.227,0,0,1,.045-.171.23.23,0,0,1,.154-.087h.319l.339.079C21.778,19.591,21.689,19.878,21.609,20.1ZM15.493,10.51a14.127,14.127,0,0,0,.08-1.717,14.928,14.928,0,0,0-.858-1.628,2.993,2.993,0,0,0-1.466-.992,15.819,15.819,0,0,0-1.806-.258c-1.377-.169-1.546,0-1.636.258s.17.774.17,1.121c0,.506.08.992.08,1.28.09,1.37,0,3.166,0,4.545,0,.764,0,.764.778.764a4.914,4.914,0,0,0,1.207,0,9.525,9.525,0,0,0,1.466-.427,2.072,2.072,0,0,0,1.636-1.37A6.254,6.254,0,0,0,15.493,10.51ZM73.355,22.24H75.08c.868,0,1.816-.089,2.674-.089h2.494c.858,0,1.716-.079,2.494-.079s1.287.079,2,.079c.439,0,1,.079,1-.516,0-.853-.17-1.8-.17-2.739,0-.258.08-.605.08-.992s-.259-.675-.519-.6-.339.516-.429.685-.08.437-.17.685a1.188,1.188,0,0,1-.259.6,7.551,7.551,0,0,1-.6,1.121c-.17.169-.429.427-.688.427s-.688.079-1,.079H78.991a1.021,1.021,0,0,1-1.117-.992c0-.169-.09-.427-.09-.6a19.394,19.394,0,0,1-.17-2.144V14.916l.259-.347c.429-.079.778-.079,1.207-.169,1-.089,1.466.258,1.546,1.2a4.573,4.573,0,0,0,.18.992c.08.337.339.337.6.337s.339-.258.259-.516a1.126,1.126,0,0,1-.09-.516,21.72,21.72,0,0,1-.09-4.109c.09-.337-.17-.427-.17-.853,0-.6-.429-.258-.688,0a.514.514,0,0,0-.09.337c-.08.685-.259,1.459-1,1.717a5.794,5.794,0,0,1-1.9.258c-.259.089-.17-1.121-.17-1.717v-4.2a.988.988,0,0,1,.17-.685,1.633,1.633,0,0,1,.858-.179h.948c1,0,2,0,2.933-.079a.759.759,0,0,1,.688.337,5.37,5.37,0,0,1,.688,1.985c.08.427.339.427.6.427s.259-.169.259-.427c0-.427.17-1.29.259-1.985v-.6a2.222,2.222,0,0,0,.08-.774c0-.248-.339-.169-.6-.169a10.028,10.028,0,0,0-1.546,0c-2.065.169-4.13.169-6.2.169H75.23a7.13,7.13,0,0,1-1.4-.079h-.678c-.259,0-.439-.169-.519.169-.09.169,0,.516,0,.685a.6.6,0,0,0,.17.427l.429-.079c.259,0,.778-.169,1,0a1.049,1.049,0,0,1,.339.774c0,.992.09,2.134.09,3.077v1.29c0,1.628-.259,3.255-.259,4.883v3.255a1.075,1.075,0,0,1-.948.943,1,1,0,0,0-.778.6c-.08.347-.08.427.09.516a1.535,1.535,0,0,1,.579.427ZM28.4,13.676a8.506,8.506,0,0,1,.539-2.908,11.2,11.2,0,0,1,1.9-3.255,6.133,6.133,0,0,1,1.207-1.379,8.638,8.638,0,0,1,1.117-.685,3.383,3.383,0,0,0,.688-.258,9.453,9.453,0,0,1,1.636-.506c.868-.089,1.9,0,2.763,0a8.266,8.266,0,0,1,2.065.506,6.188,6.188,0,0,1,3.352,2.144A8.937,8.937,0,0,1,45.042,9.14a10.983,10.983,0,0,1,.519,1.886A13.066,13.066,0,0,1,45.9,13.6a8.811,8.811,0,0,1-1.556,4.793,6.093,6.093,0,0,1-2.753,2.57,16.954,16.954,0,0,1-2.235.853,5.416,5.416,0,0,1-1.556.516,12.425,12.425,0,0,1-1.716.089,7.352,7.352,0,0,1-1.3-.347,6.792,6.792,0,0,1-1.207-.516c-.339-.169-1-.169-1.287-.337a10.058,10.058,0,0,1-1-.774,6.433,6.433,0,0,1-1.117-.992c-.439-.437-.439-1.121-.778-1.628a2.711,2.711,0,0,1-.349-.863,8.279,8.279,0,0,1-.688-3.255Zm3.362-2.57a13.065,13.065,0,0,0-.259,2.57,10.2,10.2,0,0,0,1.117,4.456,5.318,5.318,0,0,0,4.659,3.086,3.119,3.119,0,0,0,.858-.089,6.371,6.371,0,0,0,2.235-.992,6.155,6.155,0,0,0,1.9-2.57,9.361,9.361,0,0,0,.259-2.739,6.625,6.625,0,0,0,.09-1.886,8.158,8.158,0,0,0-.349-2.134c-.339-.992-.429-2.144-1.2-2.918s-1-1.538-1.905-1.985a2.525,2.525,0,0,0-1.117-.258c-1.377-.169-2.843.863-3.99,1.459A4.253,4.253,0,0,0,32.592,8.4a6.99,6.99,0,0,0-.828,2.709ZM138.778,7.423a6.169,6.169,0,0,1,1.3,2.739,13.593,13.593,0,0,1,.339,1.886,24.919,24.919,0,0,1-.259,2.57,23.879,23.879,0,0,1-.6,2.66,5.884,5.884,0,0,1-.519.992,5.82,5.82,0,0,1-1.117,1.449,7.814,7.814,0,0,1-.858.863,6.307,6.307,0,0,1-.948.6c-1,.337-1.9.6-2.843.853a5.014,5.014,0,0,1-1.636.079c-.778,0-1.546-.248-2.414-.337a4.787,4.787,0,0,1-1.207-.347l-.249-.169-.259-.079L127.155,21l-.519-.258a6.552,6.552,0,0,1-1.716-1.28,6.674,6.674,0,0,1-1.556-2.481c-.08-.347-.339-.685-.429-1.112a6.272,6.272,0,0,1-.17-1.29,32.139,32.139,0,0,1,.259-4.029,3.749,3.749,0,0,1,.6-1.628c.239-.377.5-.754.768-1.112a9.737,9.737,0,0,1,.868-.992,2.331,2.331,0,0,1,.688-.6,4.573,4.573,0,0,1,1.377-.853,9.556,9.556,0,0,1,3.881-.992c.509,0,1,.179,1.457.179a10.2,10.2,0,0,1,1.636.258,12.318,12.318,0,0,1,1.806.337,3.688,3.688,0,0,1,.778.427,3.472,3.472,0,0,0,.6.427,1.465,1.465,0,0,1,.429.347C137.83,6.739,138.438,6.977,138.778,7.423Zm-6.544,13.795A6.512,6.512,0,0,0,134.3,20.7c1.377-.943,2.584-1.717,2.933-3.344a16.716,16.716,0,0,0,.339-2.977,19.063,19.063,0,0,0-.519-3.255,9.628,9.628,0,0,0-.858-3.086,4.568,4.568,0,0,0-3.621-2.57,2.246,2.246,0,0,0-1,0,8.329,8.329,0,0,0-1.3.258,5.318,5.318,0,0,0-2.923,1.985,8.035,8.035,0,0,0-1,4.029,8.322,8.322,0,0,0-.08,2.054,13.377,13.377,0,0,0,.17,1.886,3.757,3.757,0,0,0,.6,1.886,14.494,14.494,0,0,0,.688,1.8c.17.169.259.347.429.516a5.453,5.453,0,0,0,1.9,1.112,6.178,6.178,0,0,0,1.127.347c0-.179,1-.089,1.127-.089Zm24.551-17.05a11.835,11.835,0,0,1,2.324.774,9.558,9.558,0,0,1,3.1,2.134,9.948,9.948,0,0,1,1.726,3.692,8.044,8.044,0,0,1,.429,1.28,14.207,14.207,0,0,1-.17,3.255,20.6,20.6,0,0,1-.688,2.144,5.435,5.435,0,0,1-.948,1.449,2.515,2.515,0,0,1-.6.695l-.519.506a5.425,5.425,0,0,1-2.494,1.37,9.256,9.256,0,0,1-2.245.6,19.475,19.475,0,0,1-2.4.089,8.227,8.227,0,0,1-3.192-.685,7.379,7.379,0,0,1-2.324-1.112,8.627,8.627,0,0,1-2.4-3.255,7.588,7.588,0,0,1-.519-2.739,12.136,12.136,0,0,1,.08-2.977,6.923,6.923,0,0,1,.718-2.163,11.74,11.74,0,0,1,2.494-3.6,17.782,17.782,0,0,1,2.155-.992,8.017,8.017,0,0,1,3.442-.685S156.186,4.079,156.784,4.168Zm-.858,17.308c.429,0,.778-.089,1.207-.089.858-.079,1.207-.6,2.235-1.707a6.41,6.41,0,0,0,1.556-4.456,18.556,18.556,0,0,1,.08-2.233,9.785,9.785,0,0,0-.17-2.223c-.259-1.459-.6-3.682-1.806-4.456a10.446,10.446,0,0,0-2.584-1.32,11.2,11.2,0,0,0-2.933-.179c-2.145.089-2.843,2.481-3.352,4.367-.09.427-.259.853-.349,1.28a11.041,11.041,0,0,0-.259,2.918,10.091,10.091,0,0,0,.259,2.739,7.536,7.536,0,0,0,1.556,3.255A5.858,5.858,0,0,0,155.926,21.476ZM60.695,5.28a6.3,6.3,0,0,0-3.362-.516,15.726,15.726,0,0,0-1.9.516c-.439.089-.688.516-1,.774a7.737,7.737,0,0,0-.858.764,4.048,4.048,0,0,0-.519.774,3.5,3.5,0,0,0-.728,2.362,4.612,4.612,0,0,0,.17,1.112c0,.179.09.258.17.437a1.149,1.149,0,0,0,.21.437c.08.179.259.347.339.516a7.678,7.678,0,0,0,2.245,1.379,4.837,4.837,0,0,0,1.117.6c.18.079.09.258.349.337.858.427,1.636.863,2.494,1.29a2.8,2.8,0,0,1,1.546,2.223,1.778,1.778,0,0,1-.08.943,3.67,3.67,0,0,1-1,1.548,2.871,2.871,0,0,1-2,.764,3.769,3.769,0,0,1-3.192-1.459,7.749,7.749,0,0,1-.768-.943c-.18-.347-.259-.853-.439-1.2a1.2,1.2,0,0,0-.768-.685c-.17-.089-.429.169-.6.258a2.064,2.064,0,0,0-.439.337c-.17.347-.08.089-.08.774a4.24,4.24,0,0,0,1.267,2.5,4,4,0,0,0,2.235.943c.349,0,.688.169,1.117.169h1l1.9-.258a5.656,5.656,0,0,0,1.726-.6c1-.685,2-1.191,2.324-2.392a5.738,5.738,0,0,0,.259-2.66,6.152,6.152,0,0,0-.519-.992l-.259-.516a1.5,1.5,0,0,0-.429-.6,7.123,7.123,0,0,0-1.726-1.459,5.634,5.634,0,0,0-1.117-.427c-.429-.089-.778-.258-1.207-.347a2.473,2.473,0,0,1-.778-.258,5.518,5.518,0,0,0-.688-.337,6.767,6.767,0,0,1-.838-.546,2.774,2.774,0,0,1-1.207-2.4,3.388,3.388,0,0,1,1-1.985c.339-.347.429-.685,1-.853a5.183,5.183,0,0,1,2,.248A1.869,1.869,0,0,1,60.3,7.741c.08.258,0,.516.08.774v.248c.18.347.778.774,1,.695a1.354,1.354,0,0,0,.948-.863,1.906,1.906,0,0,0,0-1.2c-.09-.159-.17-.417-.259-.6A2.626,2.626,0,0,0,60.6,5.26Zm114.944,27.7c-4.479.258-9.038-.089-13.518-.089-3.262,0-13.448.089-16.7.089-5.138,0-6.844.089-11.971.169H128.8a8.091,8.091,0,0,0-1.387,0c-1.227.347-.16,1.29.569,1.2a15.853,15.853,0,0,1,2-.258h6.115c3.9-.089,6.105-.337,9.976-.427,7.981-.089,21.01,0,28.99.089,1.636,0,3.342-.089,5.058-.089h2.6c.648.089,1.3.258,2,.337.4,0,.728-.169.559-.685-.319-.992-2-.6-2.763-.516a20.876,20.876,0,0,1-2.364.179C178.642,32.978,177.175,32.889,175.639,32.978Zm-165.653,0a21.588,21.588,0,0,1-2.434-.2c-.838-.079-2-.337-2.753.258-.329.258-.668.943-.08,1.121a1.433,1.433,0,0,0,1.167-.179,2.384,2.384,0,0,1,1.327-.337H8.989c2.085,0,4.08.079,6.165.079,8.16-.079,21.4-.169,29.549-.079,3.921.079,6.165.337,10.166.427H61.1a14.78,14.78,0,0,1,2.085.258c.748.079,1.836-.853.579-1.2a8.442,8.442,0,0,0-1.417,0H57.582c-5.247-.089-6.983-.169-12.241-.169-3.332,0-6.664-.089-10.076-.089-4.579,0-16.151.347-20.73.089C13.039,32.889,11.543,32.978,9.987,32.978Z" transform="translate(-4.398 -3.938)"/></svg>